<svg width="24" height="32" viewBox="0 0 24 32" fill="none" xmlns="http://www.w3.org/2000/svg">
<path d="M0.00290133 26.7918C0.00290133 24.5416 8.05359 22.1749 9.00413 24.957C9.49389 26.3907 7.81976 28.0157 7.10913 28.3315C7.74079 28.292 9.14625 28.2841 9.71475 28.5684C10.2832 28.8526 10.0137 29.279 9.71475 29.279C9.41582 29.279 7.70132 29.279 7.70132 29.279C8.2935 29.3975 9.71475 29.7528 10.6622 30.2265C11.37 30.7375 10.8173 30.8977 10.304 30.9371C9.7908 30.9766 8.04252 30.1446 8.04252 30.1446C8.26732 30.2384 8.72483 30.5003 9.35944 31.0556C10.0672 31.6748 9.19436 31.9218 9.00413 31.7662C7.70132 30.7003 4.1482 29.9896 2.01633 29.0421C0.310875 28.2842 -0.0365639 27.2261 0.00290133 26.7918Z" fill="#FFFF68"/>
<path fill-rule="evenodd" clip-rule="evenodd" d="M10.8963 11.0998C11.4491 8.889 13.5731 5.15433 17.6473 7.90203C19.0291 7.11249 21.7688 6.52836 21.6741 10.0339L23.4507 11.0998C23.806 11.2973 24.3507 11.9764 23.6876 13.1133C23.0745 14.1642 23.0817 18.207 18.1474 22.4046C18.0706 22.4695 17.5861 24.154 18.4763 25.8816C18.6713 26.2598 21.6739 26.4738 21.3188 27.3028C21.1158 27.7766 18.8317 26.7337 18.8316 27.1844C18.8316 27.5397 20.1343 28.3687 19.7791 28.8425C19.3801 29.3748 17.3437 27.1149 16.6998 27.1844C15.8408 27.2775 15.1104 28.2382 14.5679 27.7766C14.0005 27.2937 15.9043 26.0059 16.1025 25.8825C16.0168 25.8698 15.7123 24.2896 15.6338 24.3419C14.8036 24.9102 14.4757 24.9891 13.5175 25.4733C13.3835 25.541 13.2193 25.478 13.1676 25.3371L13.0992 25.1506C13.058 25.0383 13.1037 24.9122 13.2057 24.8497C17.7531 22.0657 20.1385 17.8771 21.1483 15.0311C21.4695 14.126 20.6566 13.3164 19.751 13.6362C14.8949 15.3512 12.8579 19.3168 12.436 21.2854C12.0412 22.9041 12.057 27.2419 14.331 28.5684H16.6998C16.9365 28.5684 17.576 28.9948 16.8182 29.279C15.8708 29.6343 14.9233 29.3164 14.8048 29.6716C14.6863 30.0269 15.2785 30.1453 16.1076 30.6191C16.9365 31.0928 15.9891 31.5665 14.9232 30.9371C14.7917 30.8595 13.7639 30.0209 13.3834 30.2265C13.1601 30.3472 13.5018 31.3297 13.265 31.5665C13.1293 31.7022 12.7912 31.7662 12.6728 31.3297C12.5058 30.7141 12.2306 29.773 11.8438 29.4347C11.2672 28.9303 11.3068 27.9238 10.8963 26.7335C10.8933 26.7227 10.4264 24.806 9.14338 23.4613C7.87794 22.1349 4.4599 23.1132 3.20847 23.4613C3.01188 23.516 2.83628 23.3336 2.9101 23.1434C4.14816 19.953 7.19812 13.6255 10.8963 11.0998ZM15.1601 9.53725C14.1135 9.53725 13.2651 10.3857 13.2651 11.4322C13.2651 12.4788 14.1135 13.3272 15.1601 13.3272C16.2066 13.3272 17.0551 12.4788 17.0551 11.4322C17.0551 10.3857 16.2066 9.53731 15.1601 9.53725Z" fill="#FFFF68"/>
<path d="M16.3443 11.4323C16.3443 11.765 16.2072 12.0656 15.9863 12.2808C15.7729 12.4886 15.4814 12.6166 15.16 12.6166C14.5059 12.6166 13.9328 12.239 13.9328 11.41C13.9328 11.0047 14.0572 10.7258 14.306 10.477C14.5613 10.2216 14.8588 10.166 15.1768 10.166C15.5697 10.166 15.0942 10.8041 15.3012 11.0998C15.4546 11.3191 16.3443 11.1538 16.3443 11.4323Z" fill="#FFFF68"/>
<path d="M17.7321 7.20436C17.6905 7.22748 17.6385 7.22483 17.5987 7.19869C14.4286 5.11493 11.91 6.98051 11.0505 9.09606C11.0025 9.21419 10.8172 9.20653 10.7875 9.08252L9.78753 4.90301C9.63535 4.26695 10.2099 3.69512 10.8452 3.85028L12.3065 4.20718C12.364 4.22122 12.4235 4.19281 12.4486 4.13926L13.8388 1.18195C14.0779 0.673416 14.7277 0.519217 15.1698 0.866129L17.8257 2.9505L19.0777 1.77232C19.5875 1.2926 20.4262 1.57666 20.5396 2.26743L21.3035 6.92293C21.3252 7.05504 21.1153 7.15008 21.0109 7.06637C20.0863 6.32538 18.6392 6.70027 17.7321 7.20436Z" fill="#FFFF68"/>
</svg>
